<mxfile host="app.diagrams.net" agent="Mozilla/5.0 (Windows NT 10.0; Win64; x64) AppleWebKit/537.36 (KHTML, like Gecko) Chrome/134.0.0.0 Safari/537.36" version="26.1.0">
  <diagram name="Page-1" id="2YBvvXClWsGukQMizWep">
    <mxGraphModel dx="1195" dy="701" grid="1" gridSize="10" guides="1" tooltips="1" connect="1" arrows="1" fold="1" page="1" pageScale="1" pageWidth="827" pageHeight="1169" math="1" shadow="0">
      <root>
        <mxCell id="0" />
        <mxCell id="1" parent="0" />
        <mxCell id="MYoi4KxPJ2EGaSQVuF4l-1" value="" style="endArrow=classic;html=1;rounded=1;strokeWidth=4;curved=0;" edge="1" parent="1">
          <mxGeometry width="50" height="50" relative="1" as="geometry">
            <mxPoint x="120" y="480" as="sourcePoint" />
            <mxPoint x="580" y="480" as="targetPoint" />
          </mxGeometry>
        </mxCell>
        <mxCell id="MYoi4KxPJ2EGaSQVuF4l-2" value="" style="endArrow=none;html=1;rounded=0;entryX=0.5;entryY=1;entryDx=0;entryDy=0;" edge="1" parent="1" target="MYoi4KxPJ2EGaSQVuF4l-9">
          <mxGeometry width="50" height="50" relative="1" as="geometry">
            <mxPoint x="120" y="480" as="sourcePoint" />
            <mxPoint x="120" y="400" as="targetPoint" />
          </mxGeometry>
        </mxCell>
        <mxCell id="MYoi4KxPJ2EGaSQVuF4l-3" value="" style="endArrow=none;html=1;rounded=0;entryX=0.5;entryY=1;entryDx=0;entryDy=0;" edge="1" parent="1" target="MYoi4KxPJ2EGaSQVuF4l-38">
          <mxGeometry width="50" height="50" relative="1" as="geometry">
            <mxPoint x="320" y="480" as="sourcePoint" />
            <mxPoint x="320" y="400" as="targetPoint" />
          </mxGeometry>
        </mxCell>
        <mxCell id="MYoi4KxPJ2EGaSQVuF4l-4" value="" style="endArrow=none;html=1;rounded=0;entryX=0.5;entryY=1;entryDx=0;entryDy=0;" edge="1" parent="1" target="MYoi4KxPJ2EGaSQVuF4l-39">
          <mxGeometry width="50" height="50" relative="1" as="geometry">
            <mxPoint x="520" y="480" as="sourcePoint" />
            <mxPoint x="520" y="400" as="targetPoint" />
          </mxGeometry>
        </mxCell>
        <mxCell id="MYoi4KxPJ2EGaSQVuF4l-6" value="$$t=0$$" style="text;html=1;align=center;verticalAlign=middle;resizable=0;points=[];autosize=1;strokeColor=none;fillColor=none;fontSize=19;" vertex="1" parent="1">
          <mxGeometry x="75" y="483" width="90" height="40" as="geometry" />
        </mxCell>
        <mxCell id="MYoi4KxPJ2EGaSQVuF4l-7" value="$$t=1$$" style="text;html=1;align=center;verticalAlign=middle;resizable=0;points=[];autosize=1;strokeColor=none;fillColor=none;fontSize=19;" vertex="1" parent="1">
          <mxGeometry x="277" y="483" width="90" height="40" as="geometry" />
        </mxCell>
        <mxCell id="MYoi4KxPJ2EGaSQVuF4l-8" value="$$t=2$$" style="text;html=1;align=center;verticalAlign=middle;resizable=0;points=[];autosize=1;strokeColor=none;fillColor=none;fontSize=19;" vertex="1" parent="1">
          <mxGeometry x="478" y="483" width="90" height="40" as="geometry" />
        </mxCell>
        <mxCell id="MYoi4KxPJ2EGaSQVuF4l-9" value="$$j_0$$" style="rounded=1;whiteSpace=wrap;html=1;fillColor=#f5f5f5;fontColor=#333333;strokeColor=#666666;" vertex="1" parent="1">
          <mxGeometry x="100" y="350" width="40" height="40" as="geometry" />
        </mxCell>
        <mxCell id="MYoi4KxPJ2EGaSQVuF4l-11" value="$$x_1$$" style="rounded=1;whiteSpace=wrap;html=1;shadow=1;" vertex="1" parent="1">
          <mxGeometry x="380" y="220" width="80" height="60" as="geometry" />
        </mxCell>
        <mxCell id="MYoi4KxPJ2EGaSQVuF4l-13" value="$$V\Rightarrow j_1 \in \mathcal{C}$$" style="rounded=1;whiteSpace=wrap;html=1;" vertex="1" parent="1">
          <mxGeometry x="174" y="340" width="90" height="60" as="geometry" />
        </mxCell>
        <mxCell id="MYoi4KxPJ2EGaSQVuF4l-14" value="$$x_0$$" style="rounded=1;whiteSpace=wrap;html=1;shadow=1;" vertex="1" parent="1">
          <mxGeometry x="180" y="220" width="79" height="60" as="geometry" />
        </mxCell>
        <mxCell id="MYoi4KxPJ2EGaSQVuF4l-31" value="" style="endArrow=classic;html=1;rounded=0;exitX=1;exitY=0.5;exitDx=0;exitDy=0;entryX=0;entryY=0.5;entryDx=0;entryDy=0;" edge="1" parent="1" source="MYoi4KxPJ2EGaSQVuF4l-14" target="MYoi4KxPJ2EGaSQVuF4l-11">
          <mxGeometry width="50" height="50" relative="1" as="geometry">
            <mxPoint x="430" y="460" as="sourcePoint" />
            <mxPoint x="480" y="410" as="targetPoint" />
          </mxGeometry>
        </mxCell>
        <mxCell id="MYoi4KxPJ2EGaSQVuF4l-32" value="$$p(x_1|x_0,j_0)$$" style="text;html=1;align=center;verticalAlign=middle;resizable=0;points=[];autosize=1;strokeColor=none;fillColor=none;" vertex="1" parent="1">
          <mxGeometry x="255" y="220" width="130" height="30" as="geometry" />
        </mxCell>
        <mxCell id="MYoi4KxPJ2EGaSQVuF4l-35" value="" style="endArrow=classic;html=1;rounded=0;exitX=1;exitY=0.5;exitDx=0;exitDy=0;" edge="1" parent="1" source="MYoi4KxPJ2EGaSQVuF4l-11">
          <mxGeometry width="50" height="50" relative="1" as="geometry">
            <mxPoint x="430" y="450" as="sourcePoint" />
            <mxPoint x="570" y="250" as="targetPoint" />
          </mxGeometry>
        </mxCell>
        <mxCell id="MYoi4KxPJ2EGaSQVuF4l-38" value="$$j_1$$" style="rounded=1;whiteSpace=wrap;html=1;fillColor=#f5f5f5;fontColor=#333333;strokeColor=#666666;" vertex="1" parent="1">
          <mxGeometry x="300" y="350" width="40" height="40" as="geometry" />
        </mxCell>
        <mxCell id="MYoi4KxPJ2EGaSQVuF4l-39" value="$$j_2$$" style="rounded=1;whiteSpace=wrap;html=1;fillColor=#f5f5f5;fontColor=#333333;strokeColor=#666666;" vertex="1" parent="1">
          <mxGeometry x="500" y="350" width="40" height="40" as="geometry" />
        </mxCell>
        <mxCell id="MYoi4KxPJ2EGaSQVuF4l-40" value="$$V\Rightarrow j_2 \in \mathcal{C}$$" style="rounded=1;whiteSpace=wrap;html=1;" vertex="1" parent="1">
          <mxGeometry x="375" y="340" width="90" height="60" as="geometry" />
        </mxCell>
        <mxCell id="MYoi4KxPJ2EGaSQVuF4l-41" value="" style="endArrow=none;dashed=1;html=1;dashPattern=1 2;strokeWidth=2;rounded=0;exitX=1;exitY=0.5;exitDx=0;exitDy=0;entryX=0;entryY=0.5;entryDx=0;entryDy=0;" edge="1" parent="1" source="MYoi4KxPJ2EGaSQVuF4l-9" target="MYoi4KxPJ2EGaSQVuF4l-13">
          <mxGeometry width="50" height="50" relative="1" as="geometry">
            <mxPoint x="330" y="370" as="sourcePoint" />
            <mxPoint x="380" y="320" as="targetPoint" />
          </mxGeometry>
        </mxCell>
        <mxCell id="MYoi4KxPJ2EGaSQVuF4l-42" value="" style="endArrow=classic;html=1;rounded=0;exitX=1;exitY=0.5;exitDx=0;exitDy=0;entryX=0;entryY=0.5;entryDx=0;entryDy=0;dashed=1;dashPattern=1 2;strokeWidth=2;" edge="1" parent="1" source="MYoi4KxPJ2EGaSQVuF4l-13" target="MYoi4KxPJ2EGaSQVuF4l-38">
          <mxGeometry width="50" height="50" relative="1" as="geometry">
            <mxPoint x="330" y="370" as="sourcePoint" />
            <mxPoint x="380" y="320" as="targetPoint" />
          </mxGeometry>
        </mxCell>
        <mxCell id="MYoi4KxPJ2EGaSQVuF4l-43" value="" style="endArrow=none;dashed=1;html=1;dashPattern=1 2;strokeWidth=2;rounded=0;entryX=0;entryY=0.5;entryDx=0;entryDy=0;exitX=1;exitY=0.5;exitDx=0;exitDy=0;" edge="1" parent="1" source="MYoi4KxPJ2EGaSQVuF4l-38" target="MYoi4KxPJ2EGaSQVuF4l-40">
          <mxGeometry width="50" height="50" relative="1" as="geometry">
            <mxPoint x="370" y="400" as="sourcePoint" />
            <mxPoint x="380" y="320" as="targetPoint" />
          </mxGeometry>
        </mxCell>
        <mxCell id="MYoi4KxPJ2EGaSQVuF4l-44" value="" style="endArrow=classic;html=1;rounded=0;entryX=0;entryY=0.5;entryDx=0;entryDy=0;exitX=1;exitY=0.5;exitDx=0;exitDy=0;dashed=1;dashPattern=1 2;strokeWidth=2;" edge="1" parent="1" source="MYoi4KxPJ2EGaSQVuF4l-40" target="MYoi4KxPJ2EGaSQVuF4l-39">
          <mxGeometry width="50" height="50" relative="1" as="geometry">
            <mxPoint x="330" y="370" as="sourcePoint" />
            <mxPoint x="380" y="320" as="targetPoint" />
          </mxGeometry>
        </mxCell>
        <mxCell id="MYoi4KxPJ2EGaSQVuF4l-45" value="" style="endArrow=none;dashed=1;html=1;dashPattern=1 2;strokeWidth=2;rounded=0;exitX=0.5;exitY=0;exitDx=0;exitDy=0;entryX=0.5;entryY=1;entryDx=0;entryDy=0;" edge="1" parent="1" source="MYoi4KxPJ2EGaSQVuF4l-13" target="MYoi4KxPJ2EGaSQVuF4l-14">
          <mxGeometry width="50" height="50" relative="1" as="geometry">
            <mxPoint x="150" y="380" as="sourcePoint" />
            <mxPoint x="184" y="380" as="targetPoint" />
          </mxGeometry>
        </mxCell>
        <mxCell id="MYoi4KxPJ2EGaSQVuF4l-46" value="" style="endArrow=none;dashed=1;html=1;dashPattern=1 2;strokeWidth=2;rounded=0;exitX=0.5;exitY=0;exitDx=0;exitDy=0;entryX=0.5;entryY=1;entryDx=0;entryDy=0;" edge="1" parent="1" source="MYoi4KxPJ2EGaSQVuF4l-40" target="MYoi4KxPJ2EGaSQVuF4l-11">
          <mxGeometry width="50" height="50" relative="1" as="geometry">
            <mxPoint x="229" y="350" as="sourcePoint" />
            <mxPoint x="229" y="320" as="targetPoint" />
          </mxGeometry>
        </mxCell>
        <mxCell id="MYoi4KxPJ2EGaSQVuF4l-47" value="" style="endArrow=none;dashed=1;html=1;dashPattern=1 2;strokeWidth=2;rounded=0;exitX=1;exitY=0.5;exitDx=0;exitDy=0;" edge="1" parent="1" source="MYoi4KxPJ2EGaSQVuF4l-39">
          <mxGeometry width="50" height="50" relative="1" as="geometry">
            <mxPoint x="230" y="350" as="sourcePoint" />
            <mxPoint x="570" y="370" as="targetPoint" />
          </mxGeometry>
        </mxCell>
        <mxCell id="MYoi4KxPJ2EGaSQVuF4l-49" value="" style="endArrow=none;dashed=1;html=1;dashPattern=1 3;strokeWidth=2;rounded=0;exitX=0.85;exitY=0.908;exitDx=0;exitDy=0;entryX=0;entryY=0;entryDx=0;entryDy=0;exitPerimeter=0;" edge="1" parent="1" source="MYoi4KxPJ2EGaSQVuF4l-54" target="MYoi4KxPJ2EGaSQVuF4l-13">
          <mxGeometry width="50" height="50" relative="1" as="geometry">
            <mxPoint x="134.14213562373095" y="314.14213562373095" as="sourcePoint" />
            <mxPoint x="250" y="290" as="targetPoint" />
          </mxGeometry>
        </mxCell>
        <mxCell id="MYoi4KxPJ2EGaSQVuF4l-51" value="" style="endArrow=none;dashed=1;html=1;dashPattern=1 3;strokeWidth=2;rounded=0;exitX=1;exitY=1;exitDx=0;exitDy=0;entryX=0;entryY=0;entryDx=0;entryDy=0;" edge="1" parent="1" source="MYoi4KxPJ2EGaSQVuF4l-55" target="MYoi4KxPJ2EGaSQVuF4l-40">
          <mxGeometry width="50" height="50" relative="1" as="geometry">
            <mxPoint x="334.14213562373095" y="314.14213562373095" as="sourcePoint" />
            <mxPoint x="184" y="350" as="targetPoint" />
          </mxGeometry>
        </mxCell>
        <mxCell id="MYoi4KxPJ2EGaSQVuF4l-54" value="$$\zeta_{(t=0, j=j_0)}$$" style="ellipse;whiteSpace=wrap;html=1;fillColor=#bac8d3;strokeColor=#23445d;opacity=70;" vertex="1" parent="1">
          <mxGeometry x="90" y="280" width="60" height="40" as="geometry" />
        </mxCell>
        <mxCell id="MYoi4KxPJ2EGaSQVuF4l-55" value="$$\zeta_{(t=1, j=j_1)}$$" style="ellipse;whiteSpace=wrap;html=1;fillColor=#bac8d3;strokeColor=#23445d;opacity=70;" vertex="1" parent="1">
          <mxGeometry x="290" y="280" width="60" height="40" as="geometry" />
        </mxCell>
        <mxCell id="MYoi4KxPJ2EGaSQVuF4l-56" value="$$\zeta_{(t=2, j=j_2)}$$" style="ellipse;whiteSpace=wrap;html=1;fillColor=#bac8d3;strokeColor=#23445d;opacity=70;" vertex="1" parent="1">
          <mxGeometry x="490" y="280" width="60" height="40" as="geometry" />
        </mxCell>
        <mxCell id="MYoi4KxPJ2EGaSQVuF4l-57" value="" style="endArrow=none;dashed=1;html=1;dashPattern=1 3;strokeWidth=2;rounded=0;exitX=1;exitY=1;exitDx=0;exitDy=0;" edge="1" parent="1">
          <mxGeometry width="50" height="50" relative="1" as="geometry">
            <mxPoint x="542" y="314" as="sourcePoint" />
            <mxPoint x="570" y="340" as="targetPoint" />
          </mxGeometry>
        </mxCell>
      </root>
    </mxGraphModel>
  </diagram>
</mxfile>
